<?xml version="1.0" encoding="UTF-8"?>
<svg id="Layer_1" data-name="Layer 1" xmlns="http://www.w3.org/2000/svg" viewBox="0 0 929.79 548.08">
  <defs>
    <style>
      .cls-1 {
        fill: #fff;
      }
    </style>
  </defs>
  <polygon class="cls-1" points="929.79 333.99 929.79 276.51 805.4 276.51 740.24 276.51 740.24 533.72 805.4 533.72 929.79 533.72 929.79 476.25 805.4 476.25 805.4 428.03 905.66 428.03 905.66 370.56 805.4 370.56 805.4 333.99 929.79 333.99"/>
  <path class="cls-1" d="M711.63,366.45h0c0-1.81-.07-3.59-.18-5.37.11-1.65.18-3.31.18-4.98h0c0-41.62-32.84-75.51-73.9-76.97-4.51-.73-9.14-1.13-13.86-1.14h0s-.26,0-.26,0h-118.94v88.46h0v169.84h65.92v-84.18l35.91.48,1.36,2.33h.02l.52.93h0s43.98,79.12,43.98,79.12h73.49l-56.52-92.91c25.36-15.53,42.29-43.58,42.29-75.6ZM615.06,395.14h-45.95v-60.06h45.95c16.5,0,29.88,13.45,29.88,30.03s-13.38,30.03-29.88,30.03Z"/>
  <path class="cls-1" d="M454.68,445.89l-58.15-165.98h-70.87l-90.49,258.3h71.75l10.46-34.56h87.45l10.46,34.56h71.75l-30.53-87.14-1.81-5.18ZM334.85,445.89l26.25-86.76,26.25,86.76h-52.5Z"/>
  <path class="cls-1" d="M240.66,455.31l-62.83-12.62c-8.92,31.2-25.67,42.81-52.63,42.81-21.55,0-39.5-12.19-46.93-29.25-5.25-11.19-9-26.88-9-44.4,0-24.92,6.63-46.35,16.15-55.98,9.33-10.53,23.68-17.28,39.78-17.28,25.95,0,44.24,17.38,51.83,40.34l62.59-14.83c-11.41-49.2-51.75-85.64-101.96-87.54-2.81-.11-5.59-.07-8.35.04-1.53-.07-3.06-.12-4.6-.12-10.35,0-17.84.92-30.65,3.44C39.86,292.54-.74,340.4.01,411.62c.66,62.63,27.78,109.92,84.61,130.04,15.32,3.58,19.68,4.21,30,4.92,31.16,5.06,63.58-2.65,88.72-24.08,18.08-15.41,29.73-35.66,34.83-57.56.95-3.15,1.77-6.37,2.48-9.63Z"/>
  <path class="cls-1" d="M617.39,201.88c63.86,0,107.32-47.01,107.32-100.97S681.85.49,618,.49s-107.32,47.01-107.32,100.97,42.87,100.41,106.72,100.41ZM617.39,20.8c47.97,0,82.74,36.16,82.74,80.66s-34.17,80.11-82.14,80.11-82.75-36.16-82.75-80.66,34.18-80.11,82.14-80.11Z"/>
  <polygon class="cls-1" points="425.89 201.88 511.48 .49 487.31 .49 416.22 172.74 345.42 .49 320.4 .49 405.99 201.88 425.89 201.88"/>
  <polygon class="cls-1" points="162.63 201.88 239.98 29.21 317.03 201.88 344.26 201.88 251.12 0 229.46 0 136.33 201.88 162.63 201.88"/>
  <path class="cls-1" d="M779.75,133.25h56.87l46.78,68.63h27.5l-50.11-72.99c31.28-6.22,54.03-27.4,54.03-63.82,0-39.23-28.15-65.07-71.94-65.07h-85.58v201.88h22.46v-68.63ZM779.75,22.73h61.41c32.13,0,50.9,16.19,50.9,43.28s-21.32,45.14-51.18,45.14h-61.13V22.73Z"/>
  <polygon class="cls-1" points="41.46 113.92 137.21 113.92 137.21 93.15 41.46 93.15 41.46 21.05 147.57 21.05 147.57 0 19 0 19 201.88 41.46 201.88 41.46 113.92"/>
</svg>