<svg width="930" height="549" viewBox="0 0 930 549" fill="none" xmlns="http://www.w3.org/2000/svg">
<g clip-path="url(#clip0_1_38)">
<path d="M929.79 333.99V276.51H805.4H740.24V533.72H805.4H929.79V476.25H805.4V428.03H905.66V370.56H805.4V333.99H929.79Z" fill="black"/>
<path d="M711.63 366.45C711.63 364.64 711.56 362.86 711.45 361.08C711.56 359.43 711.63 357.77 711.63 356.1C711.63 314.48 678.79 280.59 637.73 279.13C633.22 278.4 628.59 278 623.87 277.99H623.61H504.67V366.45V536.29H570.59V452.11L606.5 452.59L607.86 454.92H607.88L608.4 455.85L652.38 534.97H725.87L669.35 442.06C694.71 426.53 711.64 398.48 711.64 366.46L711.63 366.45ZM615.06 395.14H569.11V335.08H615.06C631.56 335.08 644.94 348.53 644.94 365.11C644.94 381.69 631.56 395.14 615.06 395.14Z" fill="black"/>
<path d="M454.68 445.89L396.53 279.91H325.66L235.17 538.21H306.92L317.38 503.65H404.83L415.29 538.21H487.04L456.51 451.07L454.7 445.89H454.68ZM334.85 445.89L361.1 359.13L387.35 445.89H334.85Z" fill="black"/>
<path d="M240.66 455.31L177.83 442.69C168.91 473.89 152.16 485.5 125.2 485.5C103.65 485.5 85.7 473.31 78.27 456.25C73.02 445.06 69.27 429.37 69.27 411.85C69.27 386.93 75.9 365.5 85.42 355.87C94.75 345.34 109.1 338.59 125.2 338.59C151.15 338.59 169.44 355.97 177.03 378.93L239.62 364.1C228.21 314.9 187.87 278.46 137.66 276.56C134.85 276.45 132.07 276.49 129.31 276.6C127.78 276.53 126.25 276.48 124.71 276.48C114.36 276.48 106.87 277.4 94.06 279.92C39.86 292.54 -0.74 340.4 0.0100002 411.62C0.67 474.25 27.79 521.54 84.62 541.66C99.94 545.24 104.3 545.87 114.62 546.58C145.78 551.64 178.2 543.93 203.34 522.5C221.42 507.09 233.07 486.84 238.17 464.94C239.12 461.79 239.94 458.57 240.65 455.31H240.66Z" fill="black"/>
<path d="M617.39 201.88C681.25 201.88 724.71 154.87 724.71 100.91C724.71 46.95 681.85 0.489998 618 0.489998C554.15 0.489998 510.68 47.5 510.68 101.46C510.68 155.42 553.55 201.87 617.4 201.87L617.39 201.88ZM617.39 20.8C665.36 20.8 700.13 56.96 700.13 101.46C700.13 145.96 665.96 181.57 617.99 181.57C570.02 181.57 535.24 145.41 535.24 100.91C535.24 56.41 569.42 20.8 617.38 20.8H617.39Z" fill="black"/>
<path d="M425.89 201.88L511.48 0.489998H487.31L416.22 172.74L345.42 0.489998H320.4L405.99 201.88H425.89Z" fill="black"/>
<path d="M162.63 201.88L239.98 29.21L317.03 201.88H344.26L251.12 0H229.46L136.33 201.88H162.63Z" fill="black"/>
<path d="M779.75 133.25H836.62L883.4 201.88H910.9L860.79 128.89C892.07 122.67 914.82 101.49 914.82 65.07C914.82 25.84 886.67 0 842.88 0H757.3V201.88H779.76V133.25H779.75ZM779.75 22.73H841.16C873.29 22.73 892.06 38.92 892.06 66.01C892.06 93.1 870.74 111.15 840.88 111.15H779.75V22.73Z" fill="black"/>
<path d="M41.46 113.92H137.21V93.15H41.46V21.05H147.57V0H19V201.88H41.46V113.92Z" fill="black"/>
</g>
<defs>
<clipPath id="clip0_1_38">
<rect width="929.79" height="548.08" fill="white"/>
</clipPath>
</defs>
</svg>
